<svg id="Layer_1" data-name="Layer 1" xmlns="http://www.w3.org/2000/svg" viewBox="0 0 960 560"><defs><style>.cls-1{fill:#9484a1;}</style></defs><path class="cls-1" d="M213.71,445.8v-1.23c3.58-.26,4-.53,4-4.22v-16.9c0-3.72-.38-4-4-4.22v-1.29h11.95v1.29c-3.54.23-3.92.5-3.92,4.22v16.9c0,3.69.38,4,3.92,4.22v1.23Z"/><path class="cls-1" d="M303.31,438.24c-.36,1.7-1.12,5.8-1.62,7.56H278.43l-.38-.67c6.21-8.5,12.37-16.79,18.61-25.52H289c-4.83,0-5.51.41-6.27,1.58a12.38,12.38,0,0,0-1.55,3.84l-1.32-.06c.23-2.9.47-6.18.53-8.11h1.05c.56,1,1,1.08,2.34,1.08H301.9l.35.64C296.1,427,290,435.25,284,443.93c1.47.17,4.07.26,7.06.26,5.33,0,7.24-.32,8.53-1.64A13.32,13.32,0,0,0,302,438Z"/><path class="cls-1" d="M383.52,438.86c-.29,1.61-1.14,5.56-1.52,6.94H360.49v-1.23c4-.29,4.34-.7,4.34-4.22V423.57c0-3.93-.38-4.05-3.78-4.34v-1.29h19.86c.06,1.11.24,4,.41,6.36l-1.34.17a11.83,11.83,0,0,0-1.44-3.72c-.64-.93-1.85-1.23-4.86-1.23h-3.26c-1.43,0-1.52.12-1.52,1.41v9.61h4c3.92,0,4.21-.35,4.77-3.25H379v8.4h-1.32c-.61-3.13-.94-3.36-4.77-3.36h-4v7.88c0,2,.24,3,1.06,3.51s2.49.5,4.48.5c3.19,0,4.51-.29,5.51-1.41a14.62,14.62,0,0,0,2.22-4.13Z"/><path class="cls-1" d="M473.14,445.8v-1.23c3.54-.35,3.72-.64,3.66-5.15l-.15-17.2h-.17l-10.73,23.32h-.87L455,422.8h-.11l-.65,12c-.17,3.55-.17,5.37-.09,7.07.09,2,1.12,2.31,4,2.6v1.29H447.88v-1.29c2.52-.23,3.37-.85,3.72-2.55.24-1.49.5-3.34.85-7.94l.65-8.61c.38-5.57.12-5.8-3.81-6.18v-1.29h7.47L466.69,439l10.08-21.06h7.68v1.29c-3.84.32-4.11.47-4,4.72l.41,15.47c.15,4.51.27,4.8,4.07,5.15v1.23Z"/><path class="cls-1" d="M568.59,445.8v-1.23c2.72-.38,3.1-.76,2.52-2.49s-1.41-3.84-2.35-6.3h-9.4c-.73,2-1.32,3.64-1.88,5.33-.93,2.61-.58,3.11,2.73,3.46v1.23h-9.67v-1.23c2.84-.44,3.46-.73,5-4.54l9.2-22.35,1.52-.38c2.82,7.58,5.63,15.2,8.53,22.73,1.41,3.78,2,4.25,4.86,4.54v1.23Zm-4.31-22.62h-.09c-1.4,3.55-2.78,7.21-4.1,10.67h8Z"/><path class="cls-1" d="M661.59,445.8c-3.25-3.66-6.74-7.67-10.72-12.33-1-1.23-1.62-1.41-2.38-1.29v8c0,3.78.41,4.13,4.1,4.39v1.23H640.76v-1.23c3.37-.26,3.75-.61,3.75-4.39V423.62c0-3.89-.38-4.16-3.87-4.39v-1.29h11.63v1.29c-3.37.23-3.78.53-3.78,4.39V431a7.64,7.64,0,0,0,3.2-2.05,98.66,98.66,0,0,0,7.17-7.39c1.32-1.55,1.26-2-.79-2.28l-.94-.06v-1.29H668v1.29c-3.29.29-4.46.76-7.21,3.13-1.85,1.64-4.84,4.57-7.65,7.3,3.25,4,7.94,9.23,10.34,11.78,2.26,2.4,3.23,2.87,5.28,3.13v1.23Z"/><path class="cls-1" d="M281,239.92l-.18,1.2,3.68,1.38.66-1c1.52-2.29,6.73-6.2,22.91-11.72l.37-.13,7.33-8.05-2.76-3-1,.44c-6.26,2.76-11.61,4.16-15.89,4.16-1.8,0-4.83-.22-4.83-1.72,0-.62.68-1.27,1.25-1.7a5.12,5.12,0,0,1,3.14-1.09c.81,0,1.84.9,2.89,2.53l1,1.5,6.39-5.87.12-.2a4.89,4.89,0,0,0,.64-2.47c0-4.74-3.28-5.26-4.69-5.26-3.69,0-7.82,1.75-12.28,5.19s-7,7.09-7.33,10.65l-.07.68.47.49a19.8,19.8,0,0,0,6,4.05C284.06,233.2,281.51,236.47,281,239.92Z"/><path class="cls-1" d="M411.16,274.46a9.55,9.55,0,0,0,1-.7l.54-.33.48-.31.07-.23c3.43-3,8.54-9.2,15.51-18.84,6.6-9.2,12.85-13.87,18.58-13.87a57.76,57.76,0,0,1,9.24,1.16l1,.19.54-.88c4.44-7.24,6.94-12.65,7.63-16.52l.18-1-.82-.55c-2.72-1.83-7.11-3.51-13.42-5.15-5.88-1.52-10.11-3.17-12.57-4.92l-1.22-.86-.87,1.21A54.91,54.91,0,0,0,428.55,230l-.23.83,1.89,1.95a59.24,59.24,0,0,0-7.26,9.42c-1,1.51-1.95,2.86-2.86,4.07l-3,3.62a20,20,0,0,1-2,1.89l-.39.31-.12.46a27.69,27.69,0,0,1-5,3.28c-3.19,1.73-5.86,2.6-7.92,2.6-3.8,0-5.72-4.79-5.72-14.25a90.08,90.08,0,0,1,.52-12.07c3.2-18.67,3.2-19.4,3.2-19.76,0-5.19-1.5-7.82-4.46-7.82-8.1,0-18.81,7.6-32.72,23.24-13.72,15.36-27.8,28.27-41.85,38.38-19,13.48-36.12,20.31-51,20.31-25,0-37.1-10.35-37.1-31.65,0-10.22,3.15-21.66,9.35-34A80.31,80.31,0,0,1,271.5,188a79.43,79.43,0,0,1,42.65-11.84c9.73,0,19.29,6.79,28.44,20.2a186.65,186.65,0,0,1-26.2,11.46l-.51.18-1.71,2.89,2,1.56h.52c7.95,0,18.48-2.59,31.29-7.71l3.68,8.92,1.75.35.39-.15a2.5,2.5,0,0,0,1.86-2.37c0-.49,0-1.36-2.91-9.08,6.23-3.38,12.86-7.42,19.73-12,12.9-8.57,26.6-22.53,40.7-41.48,7.21-9.7,16.59-23.8,27.92-42a46.22,46.22,0,0,0-.23,4.7c0,7.68,2.24,16.81,6.68,27.11l1.15,2.68,3.57-5.91-.13-.58a100,100,0,0,1-2.26-21.48c0-15.11,4.49-28.38,13.34-39.44l1.55-1.93-3.18-.62-1.93.16-.34.24c-4.94,3.52-10.62,10-16.91,19.42C437.72,98.63,433,106,428.52,113.2c-12.44,19-24.42,34.47-35.6,46a198.27,198.27,0,0,1-45.17,34.5c-5.54-8.07-10.69-13.9-15.34-17.35-6.44-4.7-14.43-7.09-23.75-7.09-15.07,0-30.65,6-46.31,17.82C247.93,198,237.07,210.71,230.07,225a85.7,85.7,0,0,0-8.58,38c0,13.43,3.81,24.51,11.32,32.92,7.91,8.82,18.78,13.29,32.28,13.29,16.45,0,34.31-7.37,53.08-21.9,8.76-6.73,23.09-20.29,42.59-40.3,17.07-17.46,24.36-21.13,27.47-21.13,1.12,0,1.23.31,1.23,1.08,0,3.5-1,8.75-2.84,15.6-2,7.21-2.95,12.57-2.95,16.4a34.25,34.25,0,0,0,2.3,12.91c2.22,5.47,5.72,8.24,10.39,8.24,3.5,0,8.07-1.7,13.9-5.17Z"/><path class="cls-1" d="M515.05,237.15a112.82,112.82,0,0,0,10.31-14.81l.37-.68-1.55-3.21-.2-.19c-1.76-1.64-4.8-3.35-9.31-5.23l-1.1-.46-.7,1c-3.59,5-7,10.19-10.12,15.34l-.75,1.23,12.19,8.1Z"/><path class="cls-1" d="M623.07,202.49l.2-.44c5.43-11.44,6.05-14.74,6.05-16.22a2.69,2.69,0,0,0-1.53-2.38l-.36-.2H627c-1.66.06-4.84,1.18-14.7,9.45-11,9.43-13.37,11.26-13.83,11.54a18.36,18.36,0,0,1-5.54,2.24l2.14-12.6,0-.25a16.65,16.65,0,0,0-2.76-9.27c-2.21-3.36-5.13-5.06-8.69-5.06-2.13,0-7.13,1.14-15.29,3.49-14.27,4.13-23.54,11.78-27.56,22.73-4.3,11.77-4.79,15.12-4.79,16.62,0,3.18,2.45,6,7.28,8.43a25,25,0,0,0,10.84,3,65,65,0,0,0,9.19-.93c2-.3,3.71-.53,5.18-.68a118.47,118.47,0,0,1-19,16.6L550,247l-3.91,3.73c-.53.5-1.1,1-1.71,1.52l-.19.13v.05a62,62,0,0,1-7.76,5.39c-3.48,2-7.08,4.08-10.7,6.11-5.37,3.08-11.17,8.1-17.22,14.91-4.15,4.65-8.37,11.15-12.58,19.34-3.33,6.75-6.75,13.61-10.14,20.34a86.93,86.93,0,0,1-26.34,29.35c-11.86,8.37-24.3,12.61-37,12.61a72,72,0,0,1-14.24-1.26l-.84-.17-2.08,2.3.77,1.9.45.25c5,2.88,16.92,4.28,36.39,4.28,12.93,0,23.9-3.92,32.6-11.66,6.54-5.83,12.8-14.91,18.63-27,4.67-10.23,9.34-20.51,14-30.76,1.07-2.09,4.58-6.05,15.25-13.07,2.93-2,7.69-4.88,14.17-8.7l-.09.33,2.07-1.49,2.69-1.58.53-.31.16-.6a196.81,196.81,0,0,0,20.27-17.46c6-5.93,12.23-12.06,18.43-18.25-3.13,23.64-5.61,38.85-7.37,45.24l-.15.56.84,1.66,3,.37.28-1.35c4.86-23.42,8.4-41.29,10.53-53.13,16.48-15.12,27.88-24.47,33.89-27.81Zm-39.32,6.44c-4.73,1.36-12.22,2-22.31,2-.26,0-1.51-.06-6.87-.5L552,209c1.84-2.13,4.93-3.92,9.24-5.33a41,41,0,0,1,12.86-2.39C580.3,201.31,583.38,203.74,583.75,208.93Z"/><path class="cls-1" d="M652.44,311.49c-3.59,0-7.45,2.76-11.81,8.42s-6.33,9.92-6.33,13.37a5.59,5.59,0,0,0,1.5,4.16,5.73,5.73,0,0,0,4.35,1.42,60.77,60.77,0,0,1-8.22,3.53l-14.36,4.85v1.08a2.68,2.68,0,0,0,2.93,2.78c6.31,0,13.29-1.74,20.76-5.19,9-4.26,13.55-9.41,13.55-15.31,0-1.42-.53-4.72-5.4-4.72a12.12,12.12,0,0,1-3.88-.4c.07-.43.37-.79,1.73-.79a3.84,3.84,0,0,1,1.56.3l.77.34.69-.48c.64-.44,1.63-1.42,3.56-5.05a24.11,24.11,0,0,0,2.47-5.77l.24-1.17-1.09-.49A7.82,7.82,0,0,0,652.44,311.49Z"/><path class="cls-1" d="M671.92,181.42a231.18,231.18,0,0,0-20.19-45.61L650.07,133,649,136.09c-4.54,13.4-6.84,33.68-6.84,60.29,0,20,2.3,23.14,4.8,23.59l.47.09.44-.21c2.34-1.11,3.34-5.21,3.34-13.7,0-3.45.72-10.74,2.16-21.68,3,6.15,6.23,13.84,9.62,22.95,4.75,12.87,7.16,22,7.16,27.18,0,7.2-2.24,14.45-6.66,21.55-2.64,4.27-7.62,10.44-14.78,18.32l-9.53,9.79a48.21,48.21,0,0,0-8.24,11.1l-.2.4.06.45a2.43,2.43,0,0,0,2.58,2.17c.58,0,1.68-.15,5.1-1.37,17.32-6.18,29-14.54,34.81-24.85,4.77-8.56,7.19-22.64,7.19-41.85C680.5,215.76,677.61,199.32,671.92,181.42Z"/></svg>